<svg enable-background="new 0 0 376 524" viewBox="0 0 376 524" xmlns="http://www.w3.org/2000/svg"><g clip-rule="evenodd" fill-rule="evenodd"><path d="m306.6 361.7-9-.6v-17.1c0-14.1-11.5-25.6-25.6-25.6h-170.7c-14.1 0-25.6 11.5-25.6 25.6v17.1l-9 1c-33.7 4.5-59 33.2-59.2 67.2v93.9h358.4v-93.9c-.1-34.2-25.4-63-59.3-67.6z" fill="#d62525"/><path d="m186.6 412.3c-23.1 0-45-10.3-59.7-28.1v139h119.5v-139c-14.8 17.8-36.7 28.1-59.8 28.1z" fill="#ebebeb"/><path d="m244.3 359.1c-8.6-1-15.1-8.4-15-17.1v-61.5h-85.4v61.6c.1 8.7-6.4 16-15 17.1h-2v29.6c13.1 15.9 32 25.8 52.5 27.8 20.5 1.9 40.9-4.4 56.7-17.6 3.7-3.1 7.1-6.5 10.2-10.2v-29.4z" fill="#fedac6"/><path d="m161 408c-13.3-4.6-25.1-12.8-34.1-23.7v139h34.1z" fill="#dbdbdb"/><path d="m7.4 429.4v93.9h34.1v-152.9c-21 12.2-34 34.7-34.1 59z" fill="#d62525"/><path d="m229.3 318.5v-25.6h-85.3v25.6c32 17 53.3 17 85.3 0z" fill="#f5c4b0"/><path d="m129.3 355.8c1.5-2.6 3.6-4.8 6.1-6.4 5.3-3.3 8.5-9.1 8.5-15.4v-15.5h-35.5c-18.1 0-32.8 14.7-32.9 32.8 0 6.6 1.9 13 5.6 18.4l10.4 15.5c8.2-14.5 21.8-25.1 37.8-29.4z" fill="#d62525"/><path d="m135.4 523.3h-17.1v-168.8c0-2.3.9-4.4 2.5-6s3.8-2.5 6-2.5h1.5c4.1-.7 7.1-4.3 7.1-8.5v-44.6h17.1v44.5c.1 10.9-6.8 20.7-17.1 24.3z"/><path d="m16 523.3h-17.1v-93.9c.1-38.4 28.5-70.9 66.6-76.1l9.6-.7 1.1 17-9 .6c-29 3.9-51.3 29.3-51.3 59.2z"/><path d="m186.6 420.9c-25.6 0-50-11.4-66.3-31.2l13.1-10.9c13.1 15.8 32.6 25 53.2 25s40.1-9.2 53.2-25l13.1 10.9c-16.3 19.8-40.6 31.2-66.3 31.2z"/><path d="m119.8 442.7-45.7-68.3c-8.4-12.7-9.2-29-2-42.5s21.2-21.9 36.4-22h35.5v17.1h-35.5c-13.4 0-24.2 10.8-24.2 24.2-.1 4.9 1.3 9.7 4 13.7l45.7 68.2z"/><path d="m101.3 506.2c-2.3 0-4.4-.9-6-2.5s-2.5-3.8-2.5-6v-51.2c0-4.7 3.8-8.5 8.5-8.5s8.5 3.8 8.5 8.5v51.2c0 2.3-.9 4.4-2.5 6s-3.7 2.5-6 2.5z"/><path d="m254.9 523.3h-17.1v-161.6c-10.3-3.6-17.2-13.4-17.1-24.3v-44.5h17.1v44.5c0 4.2 3 7.8 7.1 8.5h1.5c2.3 0 4.4.9 6 2.5s2.5 3.8 2.5 6z"/><path d="m374.4 523.3h-17.1v-93.9c-.1-29.9-22.2-55.2-51.8-59.2l-8.5-.5 1.1-17 9 .6c38.5 5.1 67.2 37.9 67.2 76.2z"/><path d="m253.4 442.7-14.2-9.5 45.7-68.3c2.7-4 4.1-8.8 4-13.6 0-13.4-10.8-24.2-24.2-24.3h-35.5v-17.1h35.5c15.3.1 29.2 8.5 36.4 22s6.4 29.8-2 42.5z"/><path d="m272 506.2c-2.3 0-4.4-.9-6-2.5s-2.5-3.8-2.5-6v-51.2c0-4.7 3.8-8.5 8.5-8.5s8.5 3.8 8.5 8.5v51.2c0 2.3-.9 4.4-2.5 6s-3.7 2.5-6 2.5z"/><path d="m276.8 153.7h-8.5v51.1h8.5c14.1 0 25.6-11.4 25.6-25.6s-11.5-25.5-25.6-25.5z" fill="#fedac6"/><path d="m67.2 179.3c0 6.8 2.7 13.3 7.5 18.1s11.3 7.5 18.1 7.5h8.5v-51.1h-8.5c-6.8 0-13.3 2.6-18.1 7.4s-7.5 11.3-7.5 18.1z" fill="#f5c4b0"/><path d="m273.3 153.7 9.9-51.7c3.2-19.6-9.8-38.2-29.1-41.5-2-.3-3.9-.5-5.9-.5-5-15.2-19-25.5-34.8-25.6h-99.3l-16.6-25.5-8.4 8.5c-23.1 23.5-23.1 61.7 0 85.2h150.7z" fill="#e5b350"/><path d="m276.8 153.7v48.6c0 24-6.1 47.7-17.8 68.7-15.3 27.5-44.4 44.6-75.9 44.6s-60.6-17.1-75.9-44.6c-11.7-21-17.8-44.7-17.8-68.7v-99.7h153.4z" fill="#fedac6"/><path d="m123.4 102.6h-34.1v99.7c0 24 6.1 47.7 17.8 68.7 8.5 15.3 21.4 27.6 37.1 35.3-29.3-84.4-20.8-203.7-20.8-203.7z" fill="#f5c4b0"/><path d="m73.5 45.7c-5 20.4.9 42 15.8 56.9h136.3c-96.7 0-136.3-34.1-152.1-56.9z" fill="#c2853b"/><path d="m275.5 205.4h-7.2v-15h7.2c8 0 14.4-6.7 14.4-15s-6.5-15-14.4-15h-7.2v-15h7.2c15.9 0 28.8 13.4 28.8 30s-12.9 30-28.8 30z"/><path d="m97.9 209.2h-6.8c-15 0-27.2-14.3-27.2-32s12.2-32 27.2-32h6.8v16h-6.8c-7.5 0-13.6 7.1-13.6 16s6.1 16 13.6 16h6.8z"/><path d="m191.6 230.4h-25.6c-2.7 0-5.2-1.3-6.8-3.4-1.6-2.2-2.1-4.9-1.4-7.5l17-59.6 16.4 4.7-13.9 48.8h14.3z"/><path d="m183 319c-31.8 0-61.2-18.1-76.7-47.3-11.4-21.5-17.3-45.7-17.4-70.3v-96.2c0-2.2.8-4.3 2.3-5.8s3.5-2.4 5.5-2.4h141c2.6 0 5.1 1.4 6.5 3.7l31.3 49.3c.8 1.3 1.3 2.9 1.3 4.5v46.9c0 24.6-6 48.8-17.4 70.3-15.3 29.2-44.6 47.3-76.4 47.3zm-.1-17c26.1 0 50.1-14.9 62.7-38.9 10-19 15.3-40.4 15.3-62.2v-44.4l-27.5-43.5h-128.5v87.9c0 21.8 5.3 43.2 15.3 62.2 12.6 24 36.7 38.9 62.7 38.9z"/><path d="m176 264.5h-10v-17h10c13.2 0 25.8-5.2 35.1-14.6l12 12.1c-12.4 12.6-29.4 19.6-47.1 19.5z"/><ellipse cx="141.4" cy="170" rx="14.5" ry="16"/><ellipse cx="220.4" cy="170" rx="14.5" ry="16"/><path d="m276.4 170-15.7-2.9 9.4-62.7c1.1-7.5-.5-15.2-4.4-21.4-4-6.2-10-10.4-16.7-11.6-1.4-.3-2.9-.4-4.3-.4-3.4 0-6.5-2.4-7.6-6-3.7-12.3-13.9-20.6-25.6-20.6h-94.1c-2.7 0-5.1-1.5-6.6-4l-10.5-17.6-1.1 1.2c-18.8 21-18.8 55.1 0 76.1l-11.2 12.6c-25-28-25-73.3 0-101.3l8-8.8c1.7-1.9 4.1-2.8 6.4-2.6 2.4.2 4.5 1.7 5.8 3.9l13.5 22.7h89.8c16.4 0 31.4 10.5 38.5 27 .5.1.9.1 1.5.2 22.6 4.3 37.9 28.1 34.1 53.4z"/></g></svg>