<svg enable-background="new 0 0 864 864" viewBox="0 0 864 864" xmlns="http://www.w3.org/2000/svg" xmlns:xlink="http://www.w3.org/1999/xlink"><clipPath id="a"><path d="m652.6 423.7s2 31.8 4.5 52-3.5 48-12.6 63.7c0 0 1.5 28.3-7.6 54.6s-42.9 89.9-65.7 124.8-27.8 47-36.9 74.8-24.8 44.5-72.8 44-72.8-4-104.6-42.9-96-105.6-117.2-144.5-20.2-80.8-20.2-80.8-27.5 12.4-48-22.5-28-49.3-28-94 .8-76.5 30.3-74.3c3-76.5 36.4-197.1 189.5-228.1s304.2 51.7 289.3 273.2z"/></clipPath><clipPath id="b"><path d="m652.6 423.7s2 31.8 4.5 52-3.5 48-12.6 63.7c0 0 1.5 28.3-7.6 54.6s-42.9 89.9-65.7 124.8-27.8 47-36.9 74.8-24.8 44.5-72.8 44-72.8-4-104.6-42.9-96-105.6-117.2-144.5-20.2-80.8-20.2-80.8-27.5 12.4-48-22.5-28-49.3-28-94 .8-76.5 30.3-74.3c3-76.5 36.4-197.1 189.5-228.1s304.2 51.7 289.3 273.2z"/></clipPath><clipPath id="c"><path d="m652.6 423.7s2 31.8 4.5 52-3.5 48-12.6 63.7c0 0 1.5 28.3-7.6 54.6s-42.9 89.9-65.7 124.8-27.8 47-36.9 74.8-24.8 44.5-72.8 44-72.8-4-104.6-42.9-96-105.6-117.2-144.5-20.2-80.8-20.2-80.8-27.5 12.4-48-22.5-28-49.3-28-94 .8-76.5 30.3-74.3c3-76.5 36.4-197.1 189.5-228.1s304.2 51.7 289.3 273.2z"/></clipPath><clipPath id="d"><path d="m519.9 30.5c-7.7-.8-15.9.2-22.9-3.1 2.1 2.2 4.2 4.3 6.2 6.5-5-5.2-21.7-5.8-28.4-6.1-9.8-.5-19.8.4-29.2 3.1 3.9-.2 7.8.3 11.3 2.2-9.3-2-18.9.2-28.3 1-13.8 1.1-27.8-.8-40.8-5.6 2.6 1.3 4.7 3.7 5.5 6.5-17.7-3.1-36.7-4.3-54.7-4.4s-36.3 3.1-52 11.8c3.6-.3 7.2-.6 10.7-.9-17.3 2.3-32.2 13.8-43.6 27.1-19.7 23-37.4 48.5-56.2 72.4 2.6-1.7 5.3-3.4 7.9-5-14.6 14.3-25.3 32.7-30.4 52.6 1.6-4.3 4.1-8.2 7.2-11.5-8.7 25.4-16.8 52.6-22.1 78.9-8.6 43-7.8 87.9 2.5 130.5-1-1.6-.6-4 1-5.2-2 1.5 10.8 28.2 11.9 30.8 4.8 11.2 10.1 22.1 16 32.8-.3-2.6-.5-5.3-.8-7.9 3.9 8.2 8.5 16.1 13.9 23.4-.1-1.9-.2-3.7-.3-5.6 6.7 12.8 10.7 26.9 11.9 41.2.1-2.2.3-4.3.4-6.5 1.4 5.7 3.5 11.2 6.2 16.3-.8-2-.8-4.3 0-6.3.7 1.9 1.3 3.9 2 5.8.7-2.8 1.3-5.5 2-8.3.6 2.5 1.1 5 1.7 7.5-.8-3.5 1.3-9 1.5-12.7.2-3.9-.4-7.3-1.1-11.3-1.6-9.7-2.5-19.5-2.5-29.4 1.3 2.5 2.5 5.1 3.8 7.6-.7-25.4.4-50.8 3.3-75.9-1.2 2.9-2.3 5.9-3.5 8.8 3.9-16.9 1.7-33.1 12.9-47.8-2.4.7-4.6 2.2-6.3 4.1 4.2-7.2 7-15.3 8.2-23.5-1.5 2.5-3 5-4.5 7.6 1-12.8 3.4-25.4 7.2-37.6 6 3.6 13.3 5 20.1 3.6-4.2 1.5-8.8 2.2-13.3 2.2 4.6 2.8 10.6 3.3 15.6 1.2-3.5 1.3-6.8 3.3-9.5 5.9 2.1-2 6.5-2.2 9.3-2.8-3 1.6-5.5 4.2-8.4 6.1 7-.1 14.7-.5 20-5 4.8-4 6.7-10.5 8-16.6 2.8-12.6 4.2-30.7 14.8-39.6.3 2.7-.3 5.8-.7 8.6 5.9-11 13.2-21.6 23.6-28.5s24.2-9.7 35.5-4.5c-1.8-1.6-3.6-3.3-5.5-4.9 4.9 2.2 9.9 4.1 15.1 5.5-1.9-1.7-3.9-3.5-5.8-5.2 5 2.7 10.6 4.2 16.2 4.3-2.2-1.5-4.3-3-6.5-4.5 11.9 2 23.7 5.3 34.9 9.8-1-1.3-2-2.6-3-4 12.6 4 25 6.9 38.2 8.1-2.3-1.5-4.5-3.3-6.5-5.2 4 1.2 7.7 3 11.2 5.2-1-1.3-1.7-2.9-2.1-4.5 6.1 2.8 12.9 7.7 19.6 8.8-1.3-2.1-2.6-4.2-3.9-6.3 1 1.6 10.4 4 12.7 4.8 4.6 1.7 9.1 1.9 13.9-.1-2.3 1.2-4.6 2.4-6.8 3.6 5.4.4 10.8.7 16.2 1.1-1.6.4-3.2.9-4.9 1.3 15.7 2.8 31.5 10.2 46.8 6-2.5 1.3-4.9 2.5-7.4 3.8 3.7-1.9 10.7-.2 14.8-.5 6.2-.4 11.9-1.4 18.2-.5-3.8.6-7.5 1.1-11.3 1.7 7.6.2 15.2 1.6 22.4 4.1-3.3-.4-6.7 0-9.8 1.2 4.9-1.9 10.2.7 15 3 12.4 6.1 23.5 12.6 35.7 19.3-2.7-1.5-5.9-2-8.9-1.5 3.5 1.8 6.7 4 9.7 6.5-1.9-.5-3.8-1.1-5.6-1.6 16.5 14.4 21.1 37.8 23.5 59.6 2.3 20.7 3.6 41.6 3.9 62.4-1.1-2.4-2.1-4.8-3.2-7.2 3.9 22.7 10.1 44.1 12 67.2 1.5-9.9 2.2-19.3 3.7-29.3 6.8-45.6 12.4-91.5 18.3-137.2 3.9-30.2 5.4-61.3-2-90.9 1.8 2.1 3.5 4.2 5.3 6.3-1.5-13.1-2.9-26.2-4.4-39.3-1.9-17.5-4-35.3-11.3-51.4-5.2-11.5-15.8-25.6-27.5-31.2.5-6.8-2-13.7-6.7-18.6 2.2 5.6 2.7 11.8 1.4 17.7.3-4.5-1.3-9.1-4.2-12.5 2.4 6.2.9 13.8-3.7 18.6.1-9.6-4.5-19.1-11.9-25.1-7.5-6-17.7-8.4-27-6.4 10.3.6 20 7.5 23.9 17.1-3.5-4.8-8.8-8.2-14.5-9.5 7.5 3 12.6 11.3 11.7 19.4-2.1-5.3-7.5-8.4-12.3-11.5s-9.8-7.5-9.8-13.2c-.9 2.7-1.2 5.6-.9 8.5-5.1-4.9-11.2-8.4-15.9-13.7-4.3-4.9-7.7-10.6-12-15.6-8.3-9.6-18.5-16.7-31.6-18z"/></clipPath><clipPath id="e"><path d="m519.9 30.5c-7.7-.8-15.9.2-22.9-3.1 2.1 2.2 4.2 4.3 6.2 6.5-5-5.2-21.7-5.8-28.4-6.1-9.8-.5-19.8.4-29.2 3.1 3.9-.2 7.8.3 11.3 2.2-9.3-2-18.9.2-28.3 1-13.8 1.1-27.8-.8-40.8-5.6 2.6 1.3 4.7 3.7 5.5 6.5-17.7-3.1-36.7-4.3-54.7-4.4s-36.3 3.1-52 11.8c3.6-.3 7.2-.6 10.7-.9-17.3 2.3-32.2 13.8-43.6 27.1-19.7 23-37.4 48.5-56.2 72.4 2.6-1.7 5.3-3.4 7.9-5-14.6 14.3-25.3 32.7-30.4 52.6 1.6-4.3 4.1-8.2 7.2-11.5-8.7 25.4-16.8 52.6-22.1 78.9-8.6 43-7.8 87.9 2.5 130.5-1-1.6-.6-4 1-5.2-2 1.5 10.8 28.2 11.9 30.8 4.8 11.2 10.1 22.1 16 32.8-.3-2.6-.5-5.3-.8-7.9 3.9 8.2 8.5 16.1 13.9 23.4-.1-1.9-.2-3.7-.3-5.6 6.7 12.8 10.7 26.9 11.9 41.2.1-2.2.3-4.3.4-6.5 1.4 5.7 3.5 11.2 6.2 16.3-.8-2-.8-4.3 0-6.3.7 1.9 1.3 3.9 2 5.8.7-2.8 1.3-5.5 2-8.3.6 2.5 1.1 5 1.7 7.5-.8-3.5 1.3-9 1.5-12.7.2-3.9-.4-7.3-1.1-11.3-1.6-9.7-2.5-19.5-2.5-29.4 1.3 2.5 2.5 5.1 3.8 7.6-.7-25.4.4-50.8 3.3-75.9-1.2 2.9-2.3 5.9-3.5 8.8 3.9-16.9 1.7-33.1 12.9-47.8-2.4.7-4.6 2.2-6.3 4.1 4.2-7.2 7-15.3 8.2-23.5-1.5 2.5-3 5-4.5 7.6 1-12.8 3.4-25.4 7.2-37.6 6 3.6 13.3 5 20.1 3.6-4.2 1.5-8.8 2.2-13.3 2.2 4.6 2.8 10.6 3.3 15.6 1.2-3.5 1.3-6.8 3.3-9.5 5.9 2.1-2 6.5-2.2 9.3-2.8-3 1.6-5.5 4.2-8.4 6.1 7-.1 14.7-.5 20-5 4.8-4 6.7-10.5 8-16.6 2.8-12.6 4.2-30.7 14.8-39.6.3 2.7-.3 5.8-.7 8.6 5.9-11 13.2-21.6 23.6-28.5s24.2-9.7 35.5-4.5c-1.8-1.6-3.6-3.3-5.5-4.9 4.9 2.2 9.9 4.1 15.1 5.5-1.9-1.7-3.9-3.5-5.8-5.2 5 2.7 10.6 4.2 16.2 4.3-2.2-1.5-4.3-3-6.5-4.5 11.9 2 23.7 5.3 34.9 9.8-1-1.3-2-2.6-3-4 12.6 4 25 6.9 38.2 8.1-2.3-1.5-4.5-3.3-6.5-5.2 4 1.2 7.7 3 11.2 5.2-1-1.3-1.7-2.9-2.1-4.5 6.1 2.8 12.9 7.7 19.6 8.8-1.3-2.1-2.6-4.2-3.9-6.3 1 1.6 10.4 4 12.7 4.8 4.6 1.7 9.1 1.9 13.9-.1-2.3 1.2-4.6 2.4-6.8 3.6 5.4.4 10.8.7 16.2 1.1-1.6.4-3.2.9-4.9 1.3 15.7 2.8 31.5 10.2 46.8 6-2.5 1.3-4.9 2.5-7.4 3.8 3.7-1.9 10.7-.2 14.8-.5 6.2-.4 11.9-1.4 18.2-.5-3.8.6-7.5 1.1-11.3 1.7 7.6.2 15.2 1.6 22.4 4.1-3.3-.4-6.7 0-9.8 1.2 4.9-1.9 10.2.7 15 3 12.4 6.1 23.5 12.6 35.7 19.3-2.7-1.5-5.9-2-8.9-1.5 3.5 1.8 6.7 4 9.7 6.5-1.9-.5-3.8-1.1-5.6-1.6 16.5 14.4 21.1 37.8 23.5 59.6 2.3 20.7 3.6 41.6 3.9 62.4-1.1-2.4-2.1-4.8-3.2-7.2 3.9 22.7 10.1 44.1 12 67.2 1.5-9.9 2.2-19.3 3.7-29.3 6.8-45.6 12.4-91.5 18.3-137.2 3.9-30.2 5.4-61.3-2-90.9 1.8 2.1 3.5 4.2 5.3 6.3-1.5-13.1-2.9-26.2-4.4-39.3-1.9-17.5-4-35.3-11.3-51.4-5.2-11.5-15.8-25.6-27.5-31.2.5-6.8-2-13.7-6.7-18.6 2.2 5.6 2.7 11.8 1.4 17.7.3-4.5-1.3-9.1-4.2-12.5 2.4 6.2.9 13.8-3.7 18.6.1-9.6-4.5-19.1-11.9-25.1-7.5-6-17.7-8.4-27-6.4 10.3.6 20 7.5 23.9 17.1-3.5-4.8-8.8-8.2-14.5-9.5 7.5 3 12.6 11.3 11.7 19.4-2.1-5.3-7.5-8.4-12.3-11.5s-9.8-7.5-9.8-13.2c-.9 2.7-1.2 5.6-.9 8.5-5.1-4.9-11.2-8.4-15.9-13.7-4.3-4.9-7.7-10.6-12-15.6-8.3-9.6-18.5-16.7-31.6-18z"/></clipPath><clipPath id="f"><path d="m550.2 490.3s12.3.6 26.7-.6c14.4-1.3 18.2-4.5 28.3-7.3 0 0-24.3-14.7-46.5-9.6-21 6.8-27.5 17.2-27.5 17.2s13.8-.1 19 .3z"/></clipPath><clipPath id="g"><path d="m550.2 490.3s12.3.6 26.7-.6c14.4-1.3 18.2-4.5 28.3-7.3 0 0-24.3-14.7-46.5-9.6-21 6.8-27.5 17.2-27.5 17.2s13.8-.1 19 .3z"/></clipPath><clipPath id="h"><path d="m550.2 490.3s12.3.6 26.7-.6c14.4-1.3 18.2-4.5 28.3-7.3 0 0-24.3-14.7-46.5-9.6-21 6.8-27.5 17.2-27.5 17.2s13.8-.1 19 .3z"/></clipPath><clipPath id="i"><path d="m345.5 482.3s12.5 3.8 29.2 5.1 28.5-2.3 37.1-1.5c-17.2-10.9-51.5-32.3-81.3-6.3 0 0 3.3-1.8 15 2.7z"/></clipPath><clipPath id="j"><path d="m345.5 482.3s12.5 3.8 29.2 5.1 28.5-2.3 37.1-1.5c-17.2-10.9-51.5-32.3-81.3-6.3 0 0 3.3-1.8 15 2.7z"/></clipPath><clipPath id="k"><path d="m345.5 482.3s12.5 3.8 29.2 5.1 28.5-2.3 37.1-1.5c-17.2-10.9-51.5-32.3-81.3-6.3 0 0 3.3-1.8 15 2.7z"/></clipPath><path clip-path="url(#a)" d="m652.6 423.7s2 31.8 4.5 52-3.5 48-12.6 63.7c0 0 1.5 28.3-7.6 54.6s-42.9 89.9-65.7 124.8-27.8 47-36.9 74.8-24.8 44.5-72.8 44-72.8-4-104.6-42.9-96-105.6-117.2-144.5-20.2-80.8-20.2-80.8-27.5 12.4-48-22.5-28-49.3-28-94 .8-76.5 30.3-74.3c3-76.5 36.4-197.1 189.5-228.1s304.2 51.7 289.3 273.2z" fill="#f4a571"/><g clip-path="url(#b)" fill="#f09965"><path d="m431.7 616c10.5 2.7 21 5.3 31.4 8 4.6 1.2 9.6 2.3 14.1.6 6.2-2.3 9.3-9.5 9.1-16.1s-2.9-12.8-5.2-18.9c-7.3-18.9-11.4-39-12.4-59.2-.3-5.3-2.6-25.2 2.2-27.8 2.4-1.3 6.6 3.5 10.3 1.5 3.1-1.6 4.4-6 4.3-9.3-.2-4-1.8-7.7-3.1-11.4-8.7-24.2-3.9-51.5 6.4-75.1s25.6-44.6 39-66.5c7.1-11.6 13.9-24.6 12.4-38.1-1.7-14.4-12.9-26.3-25.8-32.8-13-6.5-27.7-8.5-42-10.4-27.3-3.7-54.5-7.3-81.8-11-15-2-30.9-3.9-44.7 2.3-27.9 12.6-35.9 53.1-64.8 63-4.6 1.6-9.6 2.3-13.5 5.1s-6.3 7.2-8.2 11.5c-6.8 14.9-10.9 30.8-14.4 46.8-10.6 48.8-15.7 98.8-15.2 148.7-5.6-19.6-13.3-38.5-23-56.5-1.3 14.2-1.1 28.9 4.2 42.2 4.6 11.6 13 19.4 18.8 29.9 7 12.5 11.8 26.4 16.4 39.9 9.2 26.8 16.5 54.4 29.3 79.8 10.3 20.4 23.9 38.8 37.4 57.2 17.3 23.4 34.4 46.8 54.6 67.8 4.6 4.8 9.2 9.5 14.3 13.7 15.7 12.8 36.1 19.8 56.3 19.2-16.8-5.9-33.7-14.5-43.2-29.5-3.2-5-5.4-10.5-7.6-16-5.9-14.9-11.9-29.8-17.8-44.7 2.2 5.4 13.9 12.1 18.1 16.6 5.2 5.5 9.8 11.6 14.6 17.4 10.3 12.6 22.6 22.1 40 20.7-19.3-10.2-28-32.6-35.2-53.2 13.4 7.3 27 14.8 41.9 18s31.6 1.7 43.7-7.6c-19.9 9.2-46.4-.5-55.7-20.3 34.5-6 67.1-22 93-45.6-11.7 3.6-24.8 4.7-37 5.9-10.4 1.1-21.3 1.2-30.9-2.8-6.1-2.5-11.5-6.6-17.2-10-9.3-5.4-19.7-9-30.3-10.4 14.1-3.4 29.1-3.5 43.2-.3-16.6-8.1-30.1-22.3-37.5-39.2 8.1.4 16.2 2.1 23.7 5.1 9.5 3.8 18.2 9.5 28 12.5 15.7 4.8 33.4 1.8 46.9-7.4s22.7-24.4 25.1-40.7c.4 7.5.8 15.2 4.2 22 3.3 6.7 10.3 12.3 17.8 11.5-2-7.7-7.3-14.1-12.3-20.2-9-10.8-17.9-21.6-26.9-32.4 10.9 9.7 24.7 12.7 36.7 21s23.2 19.9 24.9 34.4c2.2 17.9-10.1 33.9-21.6 47.7 2.4-8.8 4.8-17.7 7.1-26.5-9.1 8-13.2 20.2-15.3 32.1s-2.4 24.1-5.6 35.8c10.1-12.8 17.1-27 25.9-40.6 8.6-13.3 5.9-25.5 10.7-40.2 4.7-14.5 19.2-23.9 25.1-38 4-9.7 3.5-20.6 2.7-31.1-.5-6.1-1.1-12.5-4.5-17.7-3.9-6.1-11.1-9.4-18.2-10.4-7.2-1-14.4 0-21.6 1.1-2.4.4-5.1.9-6.5 2.9-1.8 2.7-.2 6.2 1.3 9 5.9 10.5 11.8 21.1 17.6 31.6-14.1 1.1-28.5-2.5-40.5-10.1 8.8 8.3 16.3 17.8 22.2 28.3-12.8-7.9-25.1-16.6-36.9-26-5.2-4.1-10.3-8.5-13.7-14.2-3-5.1-4.5-11-5.5-16.8-2.8-15.7-2.9-31.8-.4-47.5 8.7 7.6 19.8 14.3 30.8 17.6-2.9-3.7-5.7-7.4-8.6-11.1 19 14 46.4 15.6 66.9 3.8-16.8 5-35.5 3.2-51-4.9 3.8 6 8.8 11.2 14.7 15.2-17.2-8.7-34.1-18.2-50.6-28.4 12.2-18.6 33.5-30.9 55.7-32.3s44.8 8.3 59.3 25.2c1.3-10.4-5.9-20.5-15.2-25.3-9.4-4.8-20.4-5.1-30.8-3.9-23.3 2.5-45.7 11.9-63.9 26.7 14-29 44.5-49.9 76.6-50.3 32.2-.4 64.1 20.8 74.1 51.4 5.5 17 4.5 35.3 3 53.2-2.1 24.5-4.9 49.1-11.5 72.8-18.5 67-65.2 122.8-88.6 188.2-4 11.1-7.4 22.7-15.1 31.6s-21 14.2-31.4 8.8c0-27.9 4.5-55.8 13.4-82.2-12.7 12.4-20.3 29.9-20.8 47.7 7.5-16.4 16.3-32.2 26.3-47.1-7.7 14.5-8.7 31.5-11.9 47.6s-9.9 33.1-24.2 41.2c-10.4 5.8-22.9 5.9-34.9 5.6-23.3-.5-46.5-1.7-69.8-3.5-23.9-1.9-48.3-4.6-69.7-15.4-17.3-8.8-31.7-22.5-44.8-36.8-49.8-54.3-85.9-121.1-104.1-192.5-4.9-19.4-12.4-34.9-17.3-54.4 3.7 6.8 9.2 12.7 15.8 16.9 2.4 1.5 5.4 2.8 7.9 1.7 3.5-1.5 3.8-6.2 4.3-9.9 1.3-9 6.8-17.3 14.7-21.9-6.6 3.3-14-2.3-19.7-7-5.8-4.6-15.3-8.1-19.7-2.2-1.6 2.1-1.9 4.9-2.1 7.5-.5 10.8 1.8 21.6 6.7 31.2-9.1-11.4-18.3-23-24.1-36.4s-7.9-29-2.3-42.6c4.4-10.8 13.1-19.2 19.6-28.9s10.7-22.7 5.1-32.9c-21.1 27.8-30.5 64.2-25.6 98.8-26.7-42.7-17.6-97.6-7.7-147 5.9-29.2 11.9-58.7 25.4-85.2 33.3-65.5 107.3-101.8 180.2-111.5s146.6 2.5 219.7 9.7c25.3 2.5 50.7 4.4 75.6 9.2 16.3 3.2 33.9 8.8 42.5 23.1 5.5 9.3 6.2 20.6 6.5 31.3 2 71.1-3.4 142.3-16.2 212.3-11.6-29.1-46.8-44.2-77.6-38.4-30.7 5.7-56.2 28.6-71.8 55.7-16.2 28.2-22 66.9-.6 91.4 4.5 5.2 10.1 9.6 13 15.8 7.1 15.3-5.4 32.7-19 42.7-6.3 4.6-13.2 8.7-20.8 10.6-22.5 5.3-46.6-7.2-65.3-20.8z"/><path d="m300.4 461.3c-6.9 8.8-13.8 17.7-20.7 26.5 18.6-2.5 35 14.3 53.8 14-2.8-4.4-6.5-8.2-10.8-11.2 18.7 7 38.1 11.9 57.8 14.5-14.8 1.6-29.9.5-44.3-3.2 4.2 3.2 8.5 6.5 12.7 9.7-12.2-4.2-24.6-8.4-37.4-8.7-12.9-.3-26.5 4.1-34.3 14.3 10.2-2.2 20.5-4.5 30.7-6.7-12 5.4-21.6 16.1-25.6 28.7 11-12.6 31.7-13.2 45.7-4.3 4.8 3.1 9.1 7.1 14.1 9.8 8.7 4.7 19.1 5.2 28.9 4.4 15.4-1.3 30.6-5.5 44.4-12.4 6.4-3.2 13.1-7 20.1-6s12.9 10.2 8 15.4c7.1-10.8 14.1-22.2 15.3-35 1.1-12.2-3.2-24.1-4.7-36.3-.9-7.1-.9-14.3-2.6-21.2-3.4-13.3-13.5-24.1-25.2-31.3s-25-11.2-38.2-14.8c-14.4-4-29-7.6-43.9-8.2s-30.3 2-43 9.7c-20.8 12.7-29.3 33-38.5 54.4-1.2 3.2 32 5.2 37.7-2.1z"/><path d="m429.4 594.9c-2.4 5.9.3 12.7 4.3 17.6s9.4 8.5 13.5 13.3c7.5 8.6 10.7 20 13.7 31-14.2-4.1-22.9-18.8-36.4-24.8-9.2-4.1-20.1-3.8-29.6-.5-9.6 3.3-18 9.3-25.4 16.1 8.3 5.3 17.4 9.2 27 11.7 1.9 24 17.6 44.5 32.6 63.3-21.6-11.7-42.4-25-62.1-39.7-3-2.2-7.5-4.4-9.9-1.6-1.6 1.8-1 4.6-.4 6.9 3.3 12.6 6.7 25.1 10 37.7-5.4-8.8-10.8-17.5-16.3-26.3-5.2-8.5-10.5-17-14.3-26.2-5.9-14.3-7.9-30.2-5.9-45.6-8.9 4.6-12.1 15.8-12.1 25.8s2.3 20.1.5 29.9c-6.4-11.7-12.4-23.6-17.9-35.7-3-6.5-5.8-13.3-5.5-20.3.7-14.8 14.8-25.2 28.3-31.3 23-10.3 48.1-14.7 71.5-24 9-3.5 17.8-7.8 27.3-9.3s20.2.4 26.7 7.6c6.3 6.9 7.8 17.6 7.6 26.6-5.9-7-21.8-15.4-27.2-2.2z"/></g><g clip-path="url(#c)" fill="#e68253"><path d="m359.3 537.8c20.9 3.7 40.1-10.8 59-20.6 5.5-2.9 11.5-5.6 15.3-10.5 3.9-4.9 4.7-12.9-.1-16.9 6.8 4.8 11.1 13 10.9 21.4 8.6-9.3 6.5-25-1.4-34.9-8-9.9-20.2-15.2-32.2-19.3-17-5.8-34.8-9.9-52.7-8.9s-36 7.7-48.1 20.9c-4.8 5.2-9.2 11.7-16 13.6 3.8 3.3 9.8 2.8 14.3.5s8-6.1 11.9-9.3c13.7-11.4 32.5-15.9 50.2-13.6s34.2 11 47.4 23c-12.5-8.4-26.1-15.6-40.8-18.8s-30.7-2.3-44.1 4.6c-10.5 5.4-19.2 14.3-30.3 18.4 7.6 5.5 16.6 9.2 25.9 10.6-3.7-3.8-7.3-7.6-11-11.4 15.3 0 29.8 5.9 44.4 10.3s30.6 7.5 44.9 2.1c-19 9.9-42 11.8-62.4 5.2 10.7 9.1 24.6 14.3 38.6 14.4-12.2 1.7-24.9.3-36.5-3.9-10-3.7-19.4-9.5-30-10.7s-21.7 2.6-29.3 10.1c10.7-6.6 24.7-7.6 36.2-2.6-12.7-5.5-32.2 13.6-38.3 22.7 6.1-9.3 28.8-14 38.6-11.1 12.3 3.6 22.7 12.4 35.6 14.7z"/><path d="m204.8 537.6c9.2.8 19.5 4.1 23.1 12.6 2.9 6.9.3 14.8-1.4 22.1-5.3 21.6-3.4 44.3.2 66.2-.7-19.9-12.2-39.2-29.3-49.3-7.2-4.3-15.4-7.1-21.7-12.6-10.3-9.2-13.6-24-15.8-37 5.2 13.9 11.7 27 28.1 28 8.4.5 20.2-.6 25.7-7.7 5.6-7.3 1.5-21.4-8.9-22.3z"/><path d="m561 416.4c13-6.2 31.8-8 42.2-18.5 6.4-6.4 8-16 9-25 1.5-13.7 2.2-27.6 2.1-41.4-.2-19-2.3-39.7-15.5-54.6-14.9-16.8-46.1-17.6-67.1-20.9-50.7-7.8-101.3-15.6-152-23.4-20-3.1-42.7-5.5-58.5 7.2-13.1 10.6-17.3 28.4-23.4 44.2-6.1 15.7-18.1 32.3-35 32.2.6-4 1.2-8.1 1.8-12.1-9.7 5.9-13.3 18-15.9 29.1-14.4 61.8-21.1 125.4-20 188.9-8.5-20.6-17.1-41.1-25.6-61.7-3.3 20.7-2.5 42 2.5 62.3-9.7 6.2-18.1-14.8-29.5-13.1-6.3.9-9 10.4-4.2 14.5-14.4-9.2-22.6-27.2-20.1-44.1s15.6-31.8 32-36.4c-3.7-15-10.5-29.2-19.9-41.4 9.4 31.3-25.3 60.4-23.8 93-4.8-36.6-9.6-74.2-.4-109.9 6.4-24.8 19.2-47.4 32.2-69.5 37.4-63.5 80.2-128 145.1-163 65.1-35.2 144.1-35.5 216.5-19.8 47.8 10.3 98.1 30.3 122 72.9 26.6 47.2 12.6 105.5 14 159.6.7 28.4 5.8 56.6 6.9 85 1 28.4-2.4 58-17.4 82.2-5.1 8.2-3 19.1-4.4 28.7-6.5 44.2-28.3 84.5-51.1 122.9s-47.3 76.5-60.3 119.3c-2.3 7.6-4.3 15.4-8.6 22-11.8 18-39.8 30-60.4 32.9-17.6 2.4-35.5-.2-53.1-2.8-26-3.9-52.4-7.8-76.3-19 11.1-1.2 19.8-2.8 31-2.2-16.8-20.8-23.9-48.5-42.1-68 28.5 16.7 48 47.9 79.4 58.3 16.2 5.3 33.7 4.4 50.7 3.4 20.7-1.2 41.2-2.4 53-21.8 5.2-8.6 8.1-18.4 11.5-27.9 14.9-42.3 43.1-76.2 57.9-118.6 6.5-18.6 16-32.9 28.3-48.2 20.2-25.1 26.2-54.9 10.9-84.2-3.1-6-10.8-7.1-17.3-5.6s-12.4 5.3-18.7 7.5c-13.9 4.8-30.2 1.8-41.3-7.7 9.1.2 18.2-.7 27.3-1.6 8.8-.9 17.5-1.7 26.3-2.6 10.5-1 21.2-2.1 30.6-6.7-12.3-1.3-24.8-.4-36.8 2.5 7.5-2.6 14-7.9 18.1-14.7-25.9 6.9-53.8 6-79.2-2.6 11 11.7 26.6 19 42.6 20-13.2 1.3-26.7-1-38.7-6.5-2.8-1.3-6.8-2.5-8.5.1-.6.9-.7 2-.8 3.1 0 21.7 8.5 40.3 25.5 54-8.6-1.1-14.5-6.1-24.1-5.3 9.1 10.3 20.1 18.6 30.1 27.8 10.1 9.3 19.5 19.9 24 32.8 1.1 3 1.8 6.2 1.7 9.4-.3 8.5-6.8 15.4-10.4 23.1 6.6-8.8 7.4-21.5 2-31-2.5-4.4-6-8-9.5-11.5-7.5-7.5-14.6-15.8-22.6-22.7-.4 13.1-4.6 28.1 7.1 37.8 3.2 2.6 7.2 5.7 6.5 9.7-.6 3.5-4.5 5.3-7.9 6.4-18.4 6.2-37.2 11.4-56.1 15.6-5.2 1.1-10.5 2.2-15.8 1.9-11.7-.7-21.9-7.8-31.5-14.7 7.8 1 15.8.8 23.5-.4-15.4-11.1-30.7-22.1-46.1-33.2 13.6 2.1 26.8 6.4 39 12.6 5.3 2.7 10.4 5.7 16.1 7.2s12.2 1.2 16.9-2.4c3.1-2.4 5.1-6 8.2-8.4 6.8-5.4 17.6-4 23.8-10.1 7.2-7 4.1-19 .5-28.4.7 12.3-9.9 21.9-19.4 29.5-8.1-30.5-13.1-61.7-14.8-93.2-.5-8.1-.7-16.4 1.3-24.3 7.6-30.6 45.5-41 73.9-40.8-4.2 1.4-8.4 2.9-12.6 4.3 12.1-1.4 24.6-1.9 36.4 1.2s23 10.3 28.5 21.2c-14.3-10.3-31.6-17-49.2-17.2-17.7-.2-35.6 6.3-47.8 19.1 13.6-12.5 32.7-18.8 51.1-16.8s35.7 12.1 46.4 27.2c8.8-8.3 9.6-23.6 1.7-32.8-5.8-6.7-14.8-9.6-23.5-11.2-35.6-6.4-74 6.2-98.9 32.4 20.6-21.5 29.2-51.4 58-65.1z"/><path d="m451.3 582c-5.9-7-13.7-14.7-23.4-13.7-3.8.4-7.3 2.2-10.6 4-32.1 16.9-66.4 35.9-80 67.1 6.2-9.3 14.9-17.2 25-22.9-4 9.4-11.9 17-17.5 25.7s-8.7 20.1-2.6 28.6c-1-11.6 9.7-20.8 17.2-30.3 6.1-7.8 10.4-16.6 16.7-24.2 8.2-10 24-21.7 37.4-25.4 18.2-4.9 10.1 15.5 19.5 23.2-1.7-7.3-2.4-14.6.5-21.8 1.5-3.4 12-17.1 17.8-10.3z"/><path d="m355.6 657.8c-1.3.4-3 1.4-2.5 2.7.1.3.4.6.6.9 22.4 23.1 52.3 38.6 84 43.7-4.6-.7-12.1-20.5-13.8-24.5-2.6-6.1-3.4-17.7-8.2-22.2-5.5-5.3-20.6-4.7-27.8-4.8-10.9-.3-21.8 1.1-32.3 4.2z"/><path d="m464.4 753.9c18 .8 37.6-6.8 45.9-22.8-18.7 9-41.1 9.9-60.5 2.4 16.3 1.2 32.9-4 45.6-14.2 11.7-9.4 19.7-22.3 28.7-34.3s19.7-23.6 33.9-28.3c-10.8 9.2-16.1 23.5-19 37.4-2.9 14-3.9 28.4-8.3 41.9-4.5 13.5-13.2 26.6-26.5 31.7 5-4.7 8.5-10.9 10.1-17.5-.8 3.3-21 6.1-24.1 6.6-8.8 1.3-17.7 1.6-26.5.8-18.7-1.6-38.3-6.5-52.4-19.7 14.2 7.5 37.1 15.3 53.1 16z"/><path d="m491 766.8c-9.2 5.6-20 8.5-30.8 8.3-9.7-.2-20.7-1.6-30-4.2 6.7-2.6 15.9-2.2 23.1-2.2 10.2 0 28.7 3.6 37.7-1.9z"/><path d="m311.9 637.1c1.6 7.9 2.3 16 2.1 24-2.8-4.8-5.6-9.6-8.3-14.5-2-3.4-4-6.9-4.9-10.7-2.3-8.9 3.2-16.2 12-18.1-4.6 1-1.4 17.1-.9 19.3z"/><path d="m358.7 437.9c10.5.9 20.6 4.5 30.6 8 16.6 5.9 33.2 11.8 49.8 17.7-1.9-7 .7-14.8-1.5-21.7-3-9.2-13.1-13.7-22.1-17-8-3-15.9-6-23.9-9-13.6-5.1-27.3-10.2-41.6-12.1-14.4-1.9-29.6-.4-42 7.2-10.7 6.5-18.2 16.9-24.3 27.7-4.3 7.6-10.3 15.7 1.7 15.2 25.1-1 46.9-18.2 73.3-16z"/><path d="m517.3 535.8c3.4 4.4 5.6 9.6 9.1 13.9 6.5 8 16.5 12 26.2 15.7 4.3 1.6 9.9 3 12.9-.5-2.9-6.2-7.8-11.2-12-16.6-7.5-9.5-13.1-20.6-15-32.4-.2-1.4-.4-3 .4-4.3 1.6-2.5 5.3-1.6 8.1-.7 7.7 2.7 15.8 4.2 24 4.5-14.3-3.4-28.8-10.8-40.5-19.6-1.1-.8-2.3-1.7-3.7-1.6-1.2.1-2.2.9-3.1 1.7-3.9 3.5-7.5 7.5-9.3 12.4-3.9 10.4-3.7 18.9 2.9 27.5z"/></g><path d="m652.6 423.7s2 31.8 4.5 52-3.5 48-12.6 63.7c0 0 1.5 28.3-7.6 54.6s-42.9 89.9-65.7 124.8-27.8 47-36.9 74.8-24.8 44.5-72.8 44-72.8-4-104.6-42.9-96-105.6-117.2-144.5-20.2-80.8-20.2-80.8-27.5 12.4-48-22.5-28-49.3-28-94 .8-76.5 30.3-74.3c3-76.5 36.4-197.1 189.5-228.1s304.2 51.7 289.3 273.2z" fill="none" stroke="#000" stroke-miterlimit="10" stroke-width="5"/><path clip-path="url(#d)" d="m519.9 30.5c-7.7-.8-15.9.2-22.9-3.1 2.1 2.2 4.2 4.3 6.2 6.5-5-5.2-21.7-5.8-28.4-6.1-9.8-.5-19.8.4-29.2 3.1 3.9-.2 7.8.3 11.3 2.2-9.3-2-18.9.2-28.3 1-13.8 1.1-27.8-.8-40.8-5.6 2.6 1.3 4.7 3.7 5.5 6.5-17.7-3.1-36.7-4.3-54.7-4.4s-36.3 3.1-52 11.8c3.6-.3 7.2-.6 10.7-.9-17.3 2.3-32.2 13.8-43.6 27.1-19.7 23-37.4 48.5-56.2 72.4 2.6-1.7 5.3-3.4 7.9-5-14.6 14.3-25.3 32.7-30.4 52.6 1.6-4.3 4.1-8.2 7.2-11.5-8.7 25.4-16.8 52.6-22.1 78.9-8.6 43-7.8 87.9 2.5 130.5-1-1.6-.6-4 1-5.2-2 1.5 10.8 28.2 11.9 30.8 4.8 11.2 10.1 22.1 16 32.8-.3-2.6-.5-5.3-.8-7.9 3.9 8.2 8.5 16.1 13.9 23.4-.1-1.9-.2-3.7-.3-5.6 6.7 12.8 10.7 26.9 11.9 41.2.1-2.2.3-4.3.4-6.5 1.4 5.7 3.5 11.2 6.2 16.3-.8-2-.8-4.3 0-6.3.7 1.9 1.3 3.9 2 5.8.7-2.8 1.3-5.5 2-8.3.6 2.5 1.1 5 1.7 7.5-.8-3.5 1.3-9 1.5-12.7.2-3.9-.4-7.3-1.1-11.3-1.6-9.7-2.5-19.5-2.5-29.4 1.3 2.5 2.5 5.1 3.8 7.6-.7-25.4.4-50.8 3.3-75.9-1.2 2.9-2.3 5.9-3.5 8.8 3.9-16.9 1.7-33.1 12.9-47.8-2.4.7-4.6 2.2-6.3 4.1 4.2-7.2 7-15.3 8.2-23.5-1.5 2.5-3 5-4.5 7.6 1-12.8 3.4-25.4 7.2-37.6 6 3.6 13.3 5 20.1 3.6-4.2 1.5-8.8 2.2-13.3 2.2 4.6 2.8 10.6 3.3 15.6 1.2-3.5 1.3-6.8 3.3-9.5 5.9 2.1-2 6.5-2.2 9.3-2.8-3 1.6-5.5 4.2-8.4 6.1 7-.1 14.7-.5 20-5 4.8-4 6.7-10.5 8-16.6 2.8-12.6 4.2-30.7 14.8-39.6.3 2.7-.3 5.8-.7 8.6 5.9-11 13.2-21.6 23.6-28.5s24.2-9.7 35.5-4.5c-1.8-1.6-3.6-3.3-5.5-4.9 4.9 2.2 9.9 4.1 15.1 5.5-1.9-1.7-3.9-3.5-5.8-5.2 5 2.7 10.6 4.2 16.2 4.3-2.2-1.5-4.3-3-6.5-4.5 11.9 2 23.7 5.3 34.9 9.8-1-1.3-2-2.6-3-4 12.6 4 25 6.9 38.2 8.1-2.3-1.5-4.5-3.3-6.5-5.2 4 1.2 7.7 3 11.2 5.2-1-1.3-1.7-2.9-2.1-4.5 6.1 2.8 12.9 7.7 19.6 8.8-1.3-2.1-2.6-4.2-3.9-6.3 1 1.6 10.4 4 12.7 4.8 4.6 1.7 9.1 1.9 13.9-.1-2.3 1.2-4.6 2.4-6.8 3.6 5.4.4 10.8.7 16.2 1.1-1.6.4-3.2.9-4.9 1.3 15.7 2.8 31.5 10.2 46.8 6-2.5 1.3-4.9 2.5-7.4 3.8 3.7-1.9 10.7-.2 14.8-.5 6.2-.4 11.9-1.4 18.2-.5-3.8.6-7.5 1.1-11.3 1.7 7.6.2 15.2 1.6 22.4 4.1-3.3-.4-6.7 0-9.8 1.2 4.9-1.9 10.2.7 15 3 12.4 6.1 23.5 12.6 35.7 19.3-2.7-1.5-5.9-2-8.9-1.5 3.5 1.8 6.7 4 9.7 6.5-1.9-.5-3.8-1.1-5.6-1.6 16.5 14.4 21.1 37.8 23.5 59.6 2.3 20.7 3.6 41.6 3.9 62.4-1.1-2.4-2.1-4.8-3.2-7.2 3.9 22.7 10.1 44.1 12 67.2 1.5-9.9 2.2-19.3 3.7-29.3 6.8-45.6 12.4-91.5 18.3-137.2 3.9-30.2 5.4-61.3-2-90.9 1.8 2.1 3.5 4.2 5.3 6.3-1.5-13.1-2.9-26.2-4.4-39.3-1.9-17.5-4-35.3-11.3-51.4-5.2-11.5-15.8-25.6-27.5-31.2.5-6.8-2-13.7-6.7-18.6 2.2 5.6 2.7 11.8 1.4 17.7.3-4.5-1.3-9.1-4.2-12.5 2.4 6.2.9 13.8-3.7 18.6.1-9.6-4.5-19.1-11.9-25.1-7.5-6-17.7-8.4-27-6.4 10.3.6 20 7.5 23.9 17.1-3.5-4.8-8.8-8.2-14.5-9.5 7.5 3 12.6 11.3 11.7 19.4-2.1-5.3-7.5-8.4-12.3-11.5s-9.8-7.5-9.8-13.2c-.9 2.7-1.2 5.6-.9 8.5-5.1-4.9-11.2-8.4-15.9-13.7-4.3-4.9-7.7-10.6-12-15.6-8.3-9.6-18.5-16.7-31.6-18z" fill="#1b130d"/><g clip-path="url(#e)" fill="#442b11"><path d="m449.2 112.5c7.7-4 15.4-8 23.8-10.2 8.3-2.3 17.4-2.7 25.5.5-9-1.5-17.9-3.5-26.7-5.9 10.8.8 21.7 1 32.5.7-8-.1-16-1.1-23.8-2.9 14.9-4.8 31.3-4.9 46.2-.3-9.2-6.4-20.3-10.1-31.5-10.4 19.4-4.2 40.8 2.7 54 17.6-9.8-6-19.9-11.4-30.4-16.1 7.6 3.1 14.3 8.5 19 15.3-9.6-3.6-20-5.3-30.2-5 8.8-.5 17.8 2.4 24.7 7.8-10.9-3.8-22.7-4.8-34.1-3 14.3-2.5 28.9 10.9 42.4 5.6-14.6 2.1-29.8.4-43.5-4.9 11.7 9.1 25.6 15.2 40.2 17.5-8.1-1.3-14.6-.7-22.7-3.6-5.7-2.1-11.2-4.2-17.2-5.5-15.9-3.7-32.9-2.7-48.2 2.8z"/><path d="m615.6 158.1c-2.1-3.2-5.2-5.7-8.8-7 4.5 1.5 8.7 3.8 12.5 6.6-3.5-3-6.2-6.8-7.9-11 5.3 2.9 10.2 6.7 14.4 11-1.1-4.5-2.7-9-4.8-13.1 5.3 4.8 12.6 7.2 19.7 6.5-3.2-3-6.4-6-9.6-9.1 5.4 1.8 10.4 4.7 14.7 8.6-1.4-4.1-3.2-8-5.5-11.6 5.6 2.1 10.2 7 11.9 12.8-2.7-11.4-11-21.2-21.7-25.9 7.1 3.2 14.3 6.4 19.8 12-3.8-6.2-8.9-11.6-14.9-15.7 8.5-1 17.4 4.2 20.7 12.1-.4-6.2-3.7-11.9-7.6-16.7-6.1-7.4-15.6-13.7-24.8-11 8.9 1.1 17.3 5.4 23.3 12-6.4-3.5-14-4.9-21.2-4 4.7.3 9.4 1.6 13.6 3.7-6.2 1.1-12.6.5-18.5-1.5 4.3 1.8 8.6 3.7 13 5.5-5-.1-10 .2-14.9.9 5-.3 10.1 1 14.3 3.7-4.8 0-9.5.1-14.3.1 8.3.4 16.3 4.7 21.3 11.3-4.6-1.2-9-2.8-13.3-4.7 3.2 1.7 6.1 4.1 8.4 7-5.1-2.7-10.2-5.3-15.3-8 3.8 4.5 8.2 8.6 13.1 12-6.6-2.7-13.1-5.7-19.5-8.9 3.1 2.9 6.1 5.8 9.2 8.6-5.1-4-11.3-6.4-17.7-6.9 6.5 1 12.6 4.5 16.8 9.6-4.6-3.9-10.5-6.3-16.6-6.6 4.8 1.6 9.2 4.3 12.9 7.7-5.1-2-10.3-4-15.4-6 2.6 3.5 6.2 6.3 10.1 8.1-4.6-1.5-8.9-4.1-12.4-7.5 1.8 3.4 4.5 6.3 7.6 8.6-5.3-4.1-12.6-6.1-19.2-4.8 3.7 1.6 7.4 3.2 11 5.1 2.6 1.2 14.4 4.6 15.6 6.5z"/><path d="m268 298.3c4.6-4.3 7-10.5 9-16.5-2.8 5.4-7.4 9.8-12.9 12.5 11.2-11 18-26.3 18.5-42-1.1 10.7-7 20.7-15.7 26.9s-20.3 8.2-30.6 5.6c9.9 5.2 22.3 5.3 32.3.2-11 6.9-24.7 9.5-37.5 7 4.8 2.7 10.3 4.2 15.9 4.4-9.6 4.9-17.6 12.9-22.7 22.5 6.6-5.4 13.3-10.7 19.9-16.1-7.2 6.6-12.3 15.4-14.4 24.9 4.3-6.5 9.2-12.5 14.6-18-6.1 11.8-14.3 22.5-24.1 31.5 7.6-5.5 14.7-11.6 21.2-18.3-9.4 11-15.9 24.4-18.6 38.6 4.3-11.5 10.7-22.3 18.6-31.8-6.6 11.3-12.7 22.8-18.2 34.6 4.9-6.3 9.8-12.5 14.7-18.8-5.1 10.9-12.3 20.8-21 29.1 6.3-4.4 12.1-9.4 17.5-14.9-7.2 9-12 20.1-13.5 31.6 4.3-7 8.2-14.1 11.8-21.5-4.6 11.8-9.6 23.5-14.9 35.1 6.4-7.7 11.9-16.1 16.5-25-6.3 10.8-10.4 23-12 35.4 3.7-7 7.5-14.1 11.2-21.1-10 14.3-5.8 33.7-1.2 50.5 2.8-38.2 15.1-75 27.3-111.4 2.5 7.7 5.1 15.4 7.6 23.1-4-12.1-5.8-24.9-9.8-37.1-1.2-3.7-5.2-10.4-2.7-14.3 2.5-3.8 9.7-3.4 13.2-6.7z"/><path d="m201.3 298.2c.3-6.2 2-12.4 4.9-17.8-6.4 10.4-12 22.1-10.6 34.2.7-17.4 2.6-32.8 9.8-48.9-8.2 13.1-12.1 28.6-13.2 44-1.2 15.4.2 30.9 1.7 46.3-1.8-14.8.2-30.1 5.7-43.9.3 8.6-.1 17.3-1.1 25.9 3.3-9.5 5.6-19.3 6.7-29.3.8 10 2.5 19.9 4.8 29.7-4.2-17.3-2.9-49.2 11.9-61-6.7 6-13.2 13-16.2 21.5 1.3-8.4 5-16.4 10.5-22.9-6.2 4.9-13.4 14.4-14.9 22.2z"/><path d="m188.7 281.5c-.2-13.5 2.3-27 7.4-39.5-7.2 10.3-11.5 22.5-12.5 35-2.9-16.2.1-33.2 7.8-47.7s19.9-26.5 34.1-34.6c-17 11.8-30 29.2-36.6 48.8 6.1-14.8 17.6-27.2 31.8-34.5-12.5 8.2-22.3 20.4-27.6 34.5 4.3-11.5 17.9-19.7 29.6-21.2-7.9 5.2-14.6 11-19.9 18.9-7.8 11.8-10.9 26.4-14.1 40.3z"/><path d="m181 235.1c-7.2 11.6-12.1 24.5-14.4 37.9 2.6-7.1 6.5-13.7 11.5-19.5-9.6 15.3-8.2 34.9-6.4 52.9-2.4-11-3.4-22.4-3-33.6-.8 7-2.2 13.9-4.3 20.6.2-9.3-.4-18.7-1.9-27.9-3.9 14-4.1 29.1-.7 43.2-6.7-11.8-5.9-26.4-3.9-39.9 3.6-24.2 10.7-48.9 26.8-67.4-9.4 16.4-15.8 34.5-18.6 53.2 3-17.3 11-33.8 22.8-46.9-4.1 8.7-8.2 17.3-12.3 26 10.8-17.6 21.2-35.5 32.3-52.9-3.2 8.1-4.4 16.7-8.3 24.5-5.3 10.7-13.4 19.7-19.6 29.8z"/><path d="m245 137.4c-11.2 14.4-23.7 27.8-37.3 39.9 7.2-8.5 13.3-17.8 18.3-27.8-12.8 10.3-23.9 25.1-30.8 40 2.8-10.5 7.6-20.5 14.1-29.3-15.2 15.4-27.5 33.6-36.1 53.4 3-24.5 13.8-48 30.4-66.2-4.5 8.6-7.9 17.7-10.1 27.1 9.6-22.1 35.6-32.1 49.9-51.5-6.6 4.6-13.1 9.1-19.7 13.7 13.5-23.7 39.5-39.7 66.7-41.3-18.2 1-35.8 9.7-47.8 23.5 8.8-6.4 18.6-11.5 28.9-14.8-19.1 10.3-35.1 26.3-45.4 45.5 8.9-10.6 21-18.4 34.2-22.3-4.2 2.4-12.2 6.2-15.3 10.1z"/><path d="m233.7 116.8c11.6-17.6 28.8-31.5 48.3-39.4-8.6 5.6-16.9 11.6-24.8 18.1 21-13.6 49.5-12 69.6-26.9-12.3 3.1-24.6 6.2-36.9 9.3 11.4-5.5 23.3-10.2 35.4-13.9-24.6 3.2-51.2 7.3-68.5 25.1 9.9-13.6 23.3-24.6 38.5-31.6-38.2 15.3-69.2 47.8-82.6 86.7 3.1-17.1 10.8-33.4 22-46.7-9.2 10.7-19.1 20.7-29.8 30 14.6-14.7 25-33.1 38.9-48.5 36.7-40.7 98.9-56.3 150.5-37.7-28.5-9-60.1-7.9-88 3 21.4-6.3 44.5-6.8 66.1-1.5-26.2-3.6-53.5 2.1-76 15.9 15.2-5.7 31.8-7.9 48-6.4-18 .5-35.9 5.3-51.6 14 24.1-5.5 48.9-8.1 73.6-7.5-9.1-3.7-19-5.3-28.8-4.7 24-5.8 50.3-2 71.7 10.4-14.6-6.5-31-9-47-7.2 11.5 1.7 22.9 3.4 34.4 5-21.8 1.9-43.5 3.8-65.3 5.7 12.6 1.6 25.6 1.2 38-1.5-11.9 1.2-22.3 9.4-34.1 11.7-10.6 2-21.4 2.3-32 4.6-21.6 4.5-56.5 14.3-69.6 34z"/><path d="m428 67.7c5.8-8.2 14-14.7 23.3-18.6-10.5 5.9-13.7 19.3-15.4 31.3 5-12 14.5-22 26.1-27.6-5.7 4.9-10.1 11.4-12.5 18.5 3.7-6 9.8-10.1 15.9-13.7 7.7-4.6 16.2-8.8 25.2-8.6 7.7.1 15 3.5 21.9 6.7-14.6-10.6-34.7-13.1-51.4-6.4 12.7-8 29.1-9.7 43.1-4.4-15.3-6.2-33-6.2-48.2.1 10.6-6.2 23.2-8.8 35.4-7.3-24.7-3.1-56.7 0-63.4 30z"/><path d="m555.3 83.1c-6.6-6.5-16.9-9.1-25.8-6.4 10.3 1.9 20.3 6 29 11.8-8.3-3.2-17.7-3.4-26.1-.6 16-2.8 33.2 3.2 43.9 15.4-4.7-7.6-11.2-14.1-18.7-18.9 11.3 9.3 24.4 16.4 38.3 20.8-9.8-3.3-18.6-9.6-25-17.7 6.8 6.2 15.4 10.2 24.5 11.4-13.1-4.9-25-13.1-34.2-23.7 13.3 7.1 26.2 15 38.4 23.7-8.4-7.9-17.3-15.2-26.7-22 7.4 5.5 15.5 10 24 13.5-12.5-5.2-22.1-15.5-30.6-26.1s-16.5-21.8-27.3-30-25.4-12.9-38.1-8.3c9.1-2.1 18.9 0 27.2 4.3s15.5 10.5 22.3 17c-10.9-8.3-24.4-13.1-38.1-13.7 18 2.4 34.7 13.2 44.4 28.6-8.1-9.7-19.7-16.5-32.1-18.8 12.6 5.3 23.5 14.8 30.6 26.5-14.7-15.3-29.1-29.9-51.8-24.9 27 .9 35 21.3 51.9 38.1z"/><path d="m274.7 264.1c-6.6 6.2-15.9 9.6-24.8 8s-16.7-8.8-18.1-17.7c3 6.5 8.5 12 15.4 14.1 6.8 2.1 15 .2 19.6-5.3-7.6 4.9-17.1 6.7-26 5 9.4-.2 18.6-5.2 24-13-3.2 4-9.1 5-14.2 3.9-5-1.2-9.4-4.2-13.6-7.1 9.1 7.1 24 4.8 30.6-4.7-6 4-14.3 4.1-20.4.4 5.5 1.8 11.5-1.3 15.8-5.2s7.7-8.8 12.6-12c-6.8 4.8-15.2 7.1-23.4 6.6 3.8 1.9 8.2-1.1 11.2-4.2 14.2-14.6 23.8-34.1 40.9-45.1-13.2 12-26.8 24.8-32.8 41.6 6-8.2 13.5-15.2 22.1-20.7-13.5 7.9-15.9 27.5-28.8 36.3 8.4-4.4 15.4-11.4 19.9-19.8-5.2 10.9-12.4 20.9-21.1 29.3 7.4-3.9 13.3-10.8 15.9-18.7-3.7 11.3-10.1 21.6-18.6 30 16.9-6.1 20.1-30.5 35.9-39.1-12.6 6.8-11.9 27.7-22.1 37.4z"/><path d="m274.1 200.9c-6.4 8.5-15.1 15.3-24.9 19.4 10.8-5.7 19.3-15.6 23.3-27.1-4.3 8.1-12.9 13-21 17.3 10.7-14.2 21.3-28.3 32-42.5-12.6 8.7-23.7 19.7-32.4 32.3 5.3-10.2 11.4-19.9 18.3-29-4.8 5.9-10.7 10.8-17.3 14.5 11.8-8.9 20.4-21.4 31.1-31.7s25.2-18.6 39.8-15.7c-8-2.6-16.4-5.2-24.8-4-12.9 1.8-22.7 12.2-30.5 22.6s-15.1 21.9-26.6 28.1c10-9.9 15.1-23.6 23-35.3s20.9-22.1 34.7-19.5c-14.7-1.2-29.8 2.9-41.8 11.4 16.4-14.2 38.6-26.1 59-19 16.2 5.6 29.3 22.5 46.3 20.1-17.4 1.6-35.3-3.6-49.2-14.3 6 7.9 15.1 13.4 24.9 15.1-18.8-5.7-40.5-.3-54.4 13.5 10.9-8.5 25.1-12.8 38.8-11.6-12.2.3-24 6.5-31.3 16.2 9.5-7.1 21.2-11.2 33.1-11.5-18.5 2-35.9 12.8-45.8 28.6 11.1-13.6 29.1-21.2 46.5-19.6-19.5-.4-38.9 9.6-49.8 25.8 10-10.2 25.1-15 39.1-12.6-19.5-3.4-29.7 14.6-40.1 28.5z"/><path d="m370.4 123c11.4-2.2 23.2-2.8 34.8-1.7-10.5-2.5-21.1-4.6-31.8-6.3 15.4 3 31.4 2.4 46.5-1.6-18.1-.6-36.2-2.2-54.1-4.9 21-.9 42.2-1.8 62.7 2.6-10.7-4.6-22-8-33.4-10 13.8 3.5 28.2 4.9 42.4 4-26.1-5.3-52.4-9.4-78.8-12.3-12.3-1.4-24.8-2.5-37.1-.6-12.2 1.9-24.4 7.2-32.3 16.8 10.1-9.6 24.1-14.2 38-15.1s27.7 1.5 41.3 4.2c-13.8-.7-27.7 2.2-40.1 8.3 15.1-3.6 30.6-5.1 46.1-4.6-10.8 4.3-22.4 6.6-34 7 11.8.8 23.7 1.2 35.5 1.3-10.6 1.9-21.5 2.7-32.3 2.4 9 1.6 18 3.1 27 4.7-9.7 1.9-19.8 2.4-29.7 1.4 12.1 3.4 24.8 4.7 37.4 3.8-16 3.6-29.3-.1-44.8-2.6 19.4 10.8 50.4 14.8 70.5 4.8-9.9-.1-24.3-3.5-33.8-1.6z"/><path d="m361.7 202.4c25.2-.2 48.8-19.1 73.5-14.1-17.5-4-36-4.1-53.5-.1 31-5.4 61.8-21.9 92.2-13.7-33.8-17.4-78.5 10.4-111.7-8 9.7 7.5 22.3 11.1 34.4 9.8-14.5 3.6-30.3 1.9-43.7-4.7 10.7 7.1 24 10.2 36.7 8.7-15.3 5.3-33.1 2.4-46-7.4 13.2 9.8 29.9 14.8 46.4 13.9-18 7-39.7 2.9-54-10 8.9 14.1 28.2 16.5 44.9 17.4-9.5 3.6-20.3 1.6-29.9-1.7s-18.9-7.9-29-9.6-21.5.2-28.2 8c7.2-8.4 21.5-8.6 30.4-3.6 12.8 7.2 21.7 15.2 37.5 15.1z"/><path d="m476.9 146.4c-12.9-2.3-26.3-2-39.1 1 12.9-8.1 28.6-11.6 43.7-9.7-10.7-2.6-22.2-2.3-32.8.9 17.3-10.3 38.3-14.3 58.1-11.1-24.9-11.2-54.1-2.8-79 8.4 12.5-3.2 24.9-6.4 37.4-9.6-22.9 10.3-47.3 20.9-72.2 18.1 14.5 4.7 30.4 4.6 44.8-.1-17.3 12.7-41.1 10.5-62.4 7.6 17.1 2.3 30.7 10.7 48.5 7.2 17.9-3.6 34.5-12.9 53-12.7z"/></g><path d="m581.5 445.9c-3-.2-6-.3-9-.5 14.8-3.3 30.4-3.1 45.1.5-3.1-.7-6.3-.5-9.3.6 11.7.3 23.6 3.9 32.2 12.2-2-1-4-1.9-6-2.9 4.2 3.9 9 7 14.2 9.3-1.4-.4-2.8-.8-4.2-1.2 3.1 1.9 6.3 3.9 9.4 5.8-.2-2.3-.4-4.7-.5-7 1 1.3 1.7 2.8 2 4.3-1.3-5.5-.4-11.5-2-17.2-1.6-5.9-4.2-11.6-7.6-16.7-6.7-10.1-15.3-18.4-27.5-21.1 2.8.8 5.2 2.6 6.8 5-16.9-8.1-37-3.9-55.2.7-8.9 2.3-18.4 5-24.1 12.1 1.6-1.7 2.7-3.8 3.1-6-3.4 3.9-6.8 7.8-10.1 11.8 1.3-2.6 2.6-5.3 3.8-7.9-5.7 6.5-10.5 13.8-14.4 21.6 2.5-3 5.4-5.6 8.5-7.9-3.2 3.7-6.2 7.7-8.8 11.9 6.9-3.4 14.1-3.8 21.7-4.8 10.4-1.2 21.6-3.2 31.9-2.6z" fill="#3f2711"/><path d="m429.8 453.3c-15.5-4.2-31.1-8.5-46.6-12.7-7.7-2.1-15.4-4.2-23.3-4.9-12.8-1.2-25.7 1.2-38.4 3.6 1.7.3 3.4.6 5.1 1-3.4.4-6.9.7-10.3 1.1 1.3 1 3.1 1.2 4.6.7-8.8 4.4-18.3 7.4-28 8.8 2.8.2 5.7.4 8.5.6-4.4.8-8.9 1.4-13.4 1.6 2.6.5 5.3 1 7.9 1.4-6.3.6-12.5 2.5-18.1 5.4 1.6-1.6 3.2-3.3 4.9-4.9-2.3 1.3-4.8 2.1-7.4 2.6.4-2.1.7-4.3 1.1-6.4-1.5 1.3-3.1 2.5-4.6 3.8 6.6-16.2 19-29.9 34.4-38.2-2.8.6-5.6 1.7-7.9 3.4 9.9-10.4 24.4-16.2 38.7-15.7-3 1.2-6 2.4-9.1 3.6 18.4-1 37 .7 54.9 4.9 15.1 3.6 33.9 7 44.7 19.1-1.4-2.6-2.9-5.1-4.3-7.7 6.9 5.9 12.5 13.2 16.4 21.4-2-3.2-4.3-6.2-7.1-8.8 2.2 3.8 4.7 7.5 7.6 10.8-3.5-1.9-6.7-4.2-9.5-6.9 3.1 3.2 6.2 6.5 9.3 9.7-4.4-1.5-8.5-3.8-12-6.7 2.2 2.9 4.7 5.4 7.5 7.7-3.5-2.6-7.2-4.9-11-7 3.6 2.9 7.2 5.8 10.8 8.7-4.3-2.5-8.7-4.8-13.1-7 3.1 1.5 5.9 3.5 8.2 6" fill="#3f2711"/><path clip-path="url(#f)" d="m550.2 490.3s12.3.6 26.7-.6c14.4-1.3 18.2-4.5 28.3-7.3 0 0-24.3-14.7-46.5-9.6-21 6.8-27.5 17.2-27.5 17.2s13.8-.1 19 .3z" fill="#fff"/><g clip-path="url(#g)"><circle cx="565.5" cy="478.6" fill="#291205" r="20.5"/><circle cx="565.5" cy="478.6" r="8.6"/><g fill="#fff"><circle cx="557.7" cy="475.1" r="4.5"/><circle cx="574" cy="479.7" r="2.2"/></g></g><g clip-path="url(#h)" fill="#fbc1b4"><path d="m589.2 464.9s11.1 16.7-2.8 33.6c49-22.7 24.3-25 2.8-33.6z"/><path d="m544.2 471.2s-8.8 16.4 9.3 25.3c-34 5.3-51.2-4-9.3-25.3z"/></g><path d="m550.2 490.3s-8.7-1.1-11.4-1.1-3.8-2.7 4.2-8 20.1-9.7 34.1-7.1 24 9.2 24 9.2l-8.8 4.4s18.6-4.2 25.4-3c-9.1-6.1-29.6-13.6-40.5-15.2-11-1.5-20.8.4-31.8 6.4-11 6.1-17.1 9.9-20.5 12.1s-1.5 5.3 6.8 4.2 18.5-1.9 18.5-1.9z"/><path clip-path="url(#i)" d="m345.5 482.3s12.5 3.8 29.2 5.1 28.5-2.3 37.1-1.5c-17.2-10.9-51.5-32.3-81.3-6.3 0 0 3.3-1.8 15 2.7z" fill="#fff"/><g clip-path="url(#j)"><circle cx="366.6" cy="474.8" fill="#291205" r="20.5"/><circle cx="366.6" cy="474.8" r="8.6"/><g fill="#fff"><circle cx="358.9" cy="471.3" r="4.5"/><circle cx="375.1" cy="475.9" r="2.2"/></g></g><g clip-path="url(#k)" fill="#fbc1b4"><path d="m393.7 468.7s8.8 14.9-9.1 25c49.2.3 23.2-12.4 9.1-25z"/><path d="m347.4 464.7s-9.6 10.9.8 23c-36.4.2-33.6-11.7-.8-23z"/></g><path d="m390.3 487.7s3.4-.8 8-1.9c4.5-1.1 3-3.4-3.8-7.2s-25-11.4-39.4-8-19.3 8-19.3 8l9.9 3.8s-20.8-3-25.8-2.7c0 0 15.2-7.2 25.4-11.4s27.7-6.1 49.3 4.9c22 11 29.6 12.1 29.9 14.4.2 2.3-21.7-1.5-34.2.1z"/><path d="m522.5 481.6s12.5-8.3 21.6-13.3c9.1-4.9 25.8-10.2 45.9-4.5s31.1 12.5 30.7 18.9c1.9-4.9-4.9-16.3-29.6-21.6-24.6-5.3-54.2-2.6-68.6 20.5z" fill="#89442b"/><path d="m417.9 475.5s-26.1-18.6-56.5-18.6-37.9 11-41.3 16.7-9.9 8-9.9 8 7.2-16.7 23.9-23.1c16.8-6.5 67.2-9.5 83.8 17z" fill="#89442b"/><g fill="#ce6a42"><path d="m312.6 518.7s-11 1.5-21.6 11c0 0 10.6-11.7 21.6-11z"/><path d="m312.6 487.3s3.8 4.2 15.2 8c-.1-.1-10.3-.8-15.2-8z"/><path d="m534.6 505.8s24.6 9.5 45.9 9.1c0 0-25.8 1.6-45.9-9.1z"/><path d="m603.2 510s15.9-4.9 20.8-17.8c.1 0-2.6 15.9-20.8 17.8z"/><path d="m597.5 519.1s14-1.9 23.1 1.1c.1 0-7.5-6-23.1-1.1z"/><path d="m639.6 482.3s-4.5-.8-7.2 8c0 0 2.3-12.1 7.2-8z"/><path d="m547.1 497.9s20.1 6.8 40.2 0c0 0-18.2 8.3-40.2 0z"/><path d="m344 489.5s26.9 15.2 55.7 4.5c0 .1-24.6 8.8-55.7-4.5z"/><path d="m433.1 499.8s-4.9 9.9-31.8 19.7c0 0 24.6-11.8 31.8-19.7z"/><path d="m323.2 516.1s4.9-1.5 14.8 4.5c9.9 6.1 39.8 13.3 55.3 2.7 0 0-18.9 8.3-37.9 1.9-18.9-6.5-24.6-12.2-32.2-9.1z"/></g><path d="m504.3 633.9s6.8-6.6 14.1-9.9 11.4-8.1 11.4-8.1-8.3-2.2-25.5 18z" fill="#562a1d"/><path d="m467.4 638.2s-9.9-7.3-16.7-9.9c-6.8-2.5-15.7-9.6-15.7-9.6s14.5.3 32.4 19.5z" fill="#562a1d"/><path d="m524.4 472.1s-8 5.3-11.7 12.9c-3.8 7.6-3 18.6-3 18.6s-2.7-9.1-.8-16.3 7.6-14.4 15.5-15.2z" fill="#b25434"/><path d="m434.6 475.9s11.7 5.7 11 21.6c0 0 3-21.6-11-21.6z" fill="#b25434"/><path d="m528.8 576.7s1.7 4.9 2.3 15.2-.4 22-2.5 27.3c0 0 2.2-1.9 2.9-13.3.7-11.1-.2-22-2.7-29.2z" fill="#b25434"/><path d="m435.7 580.5s-2.6 2.9-2.7 14.3 1.1 24 6.5 28.5c0 0-6.7-1-7.4-20-.7-18.9 2.1-22 3.6-22.8z" fill="#b25434"/><path d="m529.8 616s-7.1-2.3-29.6 22.7c.1 0 18-26 29.6-22.7z" fill="#b25434"/><path d="m433.6 618.7s11.4.9 24.5 8.5 15.9 11.2 27.5 11c9.6 0 14.4-4.3 14.4-4.3s-6.8 3.6-15.4 3.1-14.1-4.1-26.3-11.2c-12.1-7.1-21.4-7.4-24.7-7.1z" fill="#b25434"/><path d="m359.6 633.5s-4.2 6.1-9.9 11.7-6.4 8.3-5.7 12.9c0 0-3-5.7 3.8-12.9 6.8-7.1 11.8-11.7 11.8-11.7z" fill="#ce6a42"/><path d="m314.1 505.8s-13.3.4-22.7 7.6c0 0 9.1-9.5 22.7-7.6z" fill="#ce6a42"/><path d="m405 580.5c1.2-.7-29.2 19.3-45.5 40.2.1 0 14.8-22.8 45.5-40.2z" fill="#ce6a42"/><path d="m537.3 575.2s25.8 19.7 38.3 36 11.4 24.3 1.9 45.1c0 0 4.9-6.8 8.7-19.7s-13.3-35.3-48.9-61.4z" fill="#ce6a42"/><path d="m619.1 614.6s-8 9.1-22 39.4-30.7 61-39.8 75.4c0 0 16.3-21.6 28.8-49.3s29.6-60.6 33-65.5z" fill="#ce6a42"/><path d="m421 743.8s47 22.7 80.7 4.5c0 .1-28.8 21.3-80.7-4.5z" fill="#ce6a42"/><path d="m357 659.2s25.3 27.3 35.9 40.9 34.9 44 76.8 41.4 45-18.2 62.1-46.5 29.3-40.4 29.3-40.4-7.6-.5-19.7-1.5-24.8 2-38.9 7.6-22.7 8.1-39.9 4c-17.1-4-67.2-21.7-105.6-5.5z" fill="#c25c3d"/><path d="m383.3 684.5s17.7 15.2 33.9 23.2c16.2 8.1 50 22.2 85.4 7.1-19.7 9.1-46.5 21.7-71.7 11.1s-37-32.9-47.6-41.4z" fill="#dd6d4c"/><path d="m555.1 657.2s-17.2 19.2-25.8 30.8-29.8 31.8-59.1 32.3-63.7-18.7-81.3-34.9c-17.7-16.2-22.7-21.7-29.8-25.3 18.2-3 46.5-4.5 78.3 6.1s48.5 12.1 71.2 2c22.8-10 36.9-11.5 46.5-11z" fill="#703226"/><path d="m389.5 674.1s-3.8-13.3 4.5-15.2 43.6 9.1 60.6 13.6c17.1 4.5 35.6 4.9 51.5-1.5s18.2-4.5 14 8.3c-18 15.6-84.7 23.6-130.6-5.2z" fill="#cf694c"/><path d="m469.2 688.2s1.8-7.3 12.1-9.1c10.4-1.8 12.6 4 12.6 7.8 0 0 1.5-7.1 7.6-9.3 6.1-2.3 7.1 6.1 7.1 6.1s2.5-7.3 9.1-9.9c6.6-2.5 3.8 8.8 3.3 14.1s-2.5 8.8-6.8 10.1-5.3-1.5-5.3-1.5-2.3 6.3-8.3 8.8c-6.1 2.5-7.8-.5-7.8-.5s-.3 7.3-12.4 8.1-12.6-1.3-12.9-3.5c-1.3 5.1-8.3 5.8-16.9 3.5s-10.4-4.5-10.1-8.3c-1.8 4.8-20.5 0-20.7-10.1 0 0-.8 5.6-7.6 3.8s-9.1-7.3-9.6-12.9c0 0-9.1 3.3-12.1-4.5s-2.8-16.2 1.5-18.9c4.3-2.8 9.3 8.6 9.3 8.6s.5-4.5 7.1-5.8 12.4 14.7 12.4 14.7 1.8-8.8 9.3-7.8 11.4 9.3 11.9 12.6c0 0 3.3-9.6 13.9-7.8 10.5 1.6 13.3 11.7 13.3 11.7z" fill="#fefefe"/><path d="m169.7 414.1s-4.9 18.6-12.1 31.8-9.9 24.3-9.9 24.3 1.9-12.5 1.1-32.6c-.7-20.1-4.5-61 20.9-23.5z" fill="#b25434"/><path d="m191.3 451.7s4.9 12.5 11 17.1-6.1 18.6-6.1 18.6.4-8-4.2-13.6c-4.5-5.7-12.5 8-14 15.2s4.2 6.8 13.3 7.6 6.8 11 10.6 17.8-3 12.1-9.5 6.1c-6.4-6.1-11.4-14.8-20.1-15.5s-25-7.2-14.4-30.7c10.7-23.8 25.8-31.7 33.4-22.6z" fill="#b25434"/><path d="m651.1 439.4s2 37.9 2.5 52.5c.5 14.7-5.6 31.3-5.6 31.3s-.4-66.1 3.1-83.8z" fill="#b25434"/></svg>
