<svg viewBox="0 0 154 48" xmlns="http://www.w3.org/2000/svg"><ellipse cx="24.026316" cy="24" fill="#fd1015" rx="24.026316" ry="24"/><path d="m1.45600601 16.524475c-.02059765.1395245-.14096061.2466093-.28636201.2466093-.00393525 0-.00785217-.0000784-.01174926-.0002338l-.86842106.0002338c-.1598719 0-.28947368-.1294598-.28947368-.2891566v-.5783132c0-.1596968.12960178-.2891567.28947368-.2891567l-.0000007-3.7590361c.0000007-.1596968.12960249-.2891566.28947439-.2891566h22.29256903c1.5471901 0 2.9367851.6740058 3.8905745 1.7441118.0718583.0806216.1622185.193329.2710807.3381223.1093534.1454465.2808393.2310256.4629361.2310189h.3044969c.2143897 0 .5007848.000001.8591851.000003.3188723.0010206.5770524.2595478.5770524.5783102v1.7349398c0 .3193936-.2592036.5783132-.5789474.5783132h-2.0263158c-.0038533-.0000766-.0077261 0-.0116167 0-.1598719 0-.2894737-.1294598-.2894737-.2891566-.1473693-1.7810691-1.6410858-3.1807229-3.4620674-3.1807229-1.8209817 0-3.3146982 1.3996538-3.4617945 3.1807229-.0000742.1596968-.129676.2891566-.2895479.2891566-.0039576 0-.0078966-.0000793-.0118155-.0002365l-10.42105267.0002365c-.1598719 0-.28947369-.1294598-.28947369-.2891566h-.01188978c-.14709631-1.7810691-1.64081281-3.1807229-3.46179443-3.1807229s-3.31469812 1.3996538-3.46179443 3.1807229c-.00014051.0005908-.00014229.0011812-.00014583.0017712-.00111377.0135701-.00214938.0271622-.00310636.0407761zm27.20188869-4.0907401c0 .1596968-.1296017.2891567-.2894736.2891567h-.4551417c-.0826403 0-.1613407-.0352808-.2162647-.0969607-.1899071-.2132091-.340249-.3721735-.4510256-.4768931-1.140549-1.0781864-2.6802089-1.7393992-4.3744727-1.7393992h-22.29256903c-.1598719 0-.28947369-.1294599-.28947369-.2891567l-.00000229-6.72691803c.00000109-1.29768045.95706072-2.39705592 2.24358452-2.57720807 3.88657088-.5442372 7.54555119-.8163558 10.97694099-.8163558 6.1265805 0 8.5086053.48711328 10.8057926 1.73493976 1.3988395.75984618 2.7275224 2.59477737 3.9860486 5.50479357.234887.54311397.3560566 1.12848749.3560566 1.72011565zm-28.36842194-1.7349397h.00000092v.5783132h-.00000081zm1.73684303-7.51807231c-.1598719 0-.28947368.12945983-.28947368.28915663v4.3373494c0 .15969679.12960178.28915662.28947368.28915662h4.34210526c.1598719 0 .28947369-.12945983.28947369-.28915662v-4.3373494c0-.1596968-.12960179-.28915663-.28947369-.28915663zm12.15789471 0c-.1598719 0-.2894737.12945983-.2894737.28915663v4.3373494c0 .15969679.1296018.28915662.2894737.28915662h4.3421053c.1598719 0 .2894737-.12945983.2894737-.28915662v-4.3373494c0-.1596968-.1296018-.28915663-.2894737-.28915663zm-6.07894734 0c-.1598719 0-.28947369.12945983-.28947369.28915663v4.3373494c0 .15969679.12960179.28915662.28947369.28915662h4.34210524c.1598719 0 .2894737-.12945983.2894737-.28915662v-4.3373494c0-.1596968-.1296018-.28915663-.2894737-.28915663zm12.15788954-.00000024c-.1598719 0-.2894737.12945984-.2894737.28915663l.0000002 4.33734964c0 .15969679.1296017.28915662.2894736.28915662h6.6752817c.0354714 0 .0706406-.00651242.103755-.01921269.1492449-.0572395.2237792-.22449572.166477-.37357723-.3172502-.82540201-.6839402-1.58454309-1.1000625-2.2774261-.0625448-.10414301-.1200509-.20739195-.1725147-.30974865-.6090802-1.18821138-1.8329401-1.93569618-3.1693244-1.93569684l-2.5036121-.00000123zm-15.34210007 15.90361465c-1.27897521 0-2.31578947-1.0356786-2.31578947-2.313253 0-1.2775743 1.03681426-2.313253 2.31578947-2.313253s2.31578948 1.0356787 2.31578948 2.313253c0 1.2775744-1.03681427 2.313253-2.31578948 2.313253zm0-1.1566265c.63948761 0 1.15789474-.5178393 1.15789474-1.1566265 0-.6387871-.51840713-1.1566265-1.15789474-1.1566265-.6394876 0-1.15789474.5178394-1.15789474 1.1566265 0 .6387872.51840714 1.1566265 1.15789474 1.1566265zm17.94736847 1.1566265c-1.2789753 0-2.3157895-1.0356786-2.3157895-2.313253 0-1.2775743 1.0368142-2.313253 2.3157895-2.313253 1.2789752 0 2.3157894 1.0356787 2.3157894 2.313253 0 1.2775744-1.0368142 2.313253-2.3157894 2.313253zm0-1.1566265c.6394876 0 1.1578947-.5178393 1.1578947-1.1566265 0-.6387871-.5184071-1.1566265-1.1578947-1.1566265-.6394877 0-1.1578948.5178394-1.1578948 1.1566265 0 .6387872.5184071 1.1566265 1.1578948 1.1566265z" fill="#fff" transform="translate(9.842105 13.590361)"/><path d="m63.1073461 23.1063536h6.2929296c-.5417159-1.1970425-1.7468028-2.0299004-3.1464652-2.0299004-1.3996623 0-2.6047493.832858-3.1464644 2.0299004zm9.5006907 2.6388706c-.0702143.1213477-.2014501.20299-.3517594.20299h-9.148932c.5417159 1.1970425 1.7468028 2.0299005 3.1464651 2.0299005.6717062 0 1.2985998-.1918153 1.8288662-.5236447.11811-.0739107.2671913-.1892481.447244-.3460123.1433476-.1248103.3367595-.1755599.5229407-.1372177l2.3813025.490409c.2196617.0452371.361051.2599334.315802.4795375-.0099674.0483744-.0286806.0945244-.05522.1361826-.0243119.0381619-.046783.0723799-.0674131.1026541-.5896462.8652909-1.3829384 1.5807725-2.3109418 2.0775282-.9124655.4884384-1.9551689.7654139-3.0625805.7654139-3.5884065 0-6.4973848-2.9082156-6.4973848-6.4956814 0-3.5874657 2.9089783-6.4956813 6.4973848-6.4956813 3.5884066 0 6.4973849 2.9082156 6.4973849 6.4956813 0 .4162872-.0391698.8234282-.1140257 1.2179403zm-17.3185631 4.4511695v-16.8807493c0-.1996744.140546-.371827.3363532-.4119938l2.2035438-.4520222c.2277874-.0467269.4503668.0998493.497145.3273872.0057233.0278393.0086071.0561864.0086071.0846066v17.3327715c0 .2322863-.1885117.4205915-.4210526.4205915h-2.2035439c-.2325409 0-.4210526-.1883052-.4210526-.4205915zm30.2652188.4205915h-2.4449355c-.1800361 0-.3401524-.1143418-.398404-.284507l-3.8813394-11.3382196c-.0752398-.2197915.0421379-.4588947.2621703-.5340521.0438551-.0149797.0898854-.0226238.1362336-.0226238h2.1556715c.180036 0 .3401523.1143417.3984039.284507l2.3505299 6.8663986c.0376198.1098957.1573026.1685203.2673188.1309416.061617-.0210468.1100153-.0693921.1310851-.1309416l2.3505299-6.8663986c.0582515-.1701653.2183678-.284507.3984039-.284507h2.4443965c.180036 0 .3401524.1143417.3984039.284507l2.3505299 6.8663986c.0376199.1098957.1573026.1685203.2673188.1309416.061617-.0210468.1100153-.0693921.1310851-.1309416l2.3505299-6.8663986c.0582515-.1701653.2183679-.284507.3984039-.284507h2.1556714c.232541 0 .4210527.1883052.4210527.4205914 0 .0462975-.0076525.0922774-.0226487.1360845l-3.8813394 11.3382196c-.0582516.1701652-.2183679.284507-.398404.284507h-2.4449355c-.1800361 0-.3401524-.1143418-.398404-.284507l-2.3502603-6.8656113c-.0376199-.1098957-.1573026-.1685202-.2673188-.1309415-.061617.0210467-.1100153.069392-.1310851.1309415l-2.3502603 6.8656113c-.0582516.1701652-.2183679.284507-.398404.284507zm22.9321195-.7183248c-1.041293.7095161-2.299584 1.1243049-3.654779 1.1243049-3.588407 0-6.497385-2.9082156-6.497385-6.4956814 0-3.5874657 2.908978-6.4956813 6.497385-6.4956813 1.355195 0 2.613486.4147888 3.654779 1.1243048v-.3123446c0-.2242167.181811-.4059801.406086-.4059801h2.233476c.224276 0 .406087.1817634.406087.4059801v11.3674423c0 .2242166-.181811.4059801-.406087.4059801h-2.233476c-.224275 0-.406086-.1817635-.406086-.4059801zm-3.451736-1.9205457c1.906341 0 3.451736-1.5449896 3.451736-3.4508308 0-1.9058411-1.545395-3.4508307-3.451736-3.4508307s-3.451736 1.5449896-3.451736 3.4508307c0 1.9058412 1.545395 3.4508308 3.451736 3.4508308zm18.070852-8.8222073v-.3123446c0-.2242167.181811-.4059801.406086-.4059801h2.233476c.224276 0 .406087.1817634.406087.4059801v11.3674423h-.000765c-.054259 3.5967191-2.987567 6.4956814-6.598142 6.4956814-.943218 0-1.840217-.1978403-2.651741-.5542773-.215202-.0945207-.493975-.2473619-.836319-.4585236-.242505-.1495787-.34888-.4472443-.256084-.7165858l.720011-2.0898398c.073039-.2119941.304148-.3246555.516198-.2516364.052735.0181595.101164.0469851.142266.0846798.268232.2459966.50036.4212363.696385.5257191.497678.2652658 1.065919.4156133 1.669284.4156133 1.928456 0 3.498096-1.5358708 3.551835-3.4508307h.001423v-.3123447c-1.041293.7095161-2.299584 1.1243049-3.654779 1.1243049-3.588407 0-6.497385-2.9082156-6.497385-6.4956814 0-3.5874657 2.908978-6.4956813 6.497385-6.4956813 1.355195 0 2.613486.4147888 3.654779 1.1243048zm-3.451736 8.8222073c1.906341 0 3.451736-1.5449896 3.451736-3.4508308 0-1.9058411-1.545395-3.4508307-3.451736-3.4508307s-3.451736 1.5449896-3.451736 3.4508307c0 1.9058412 1.545395 3.4508308 3.451736 3.4508308zm14.416072 3.0448506c-3.588406 0-6.497384-2.9082156-6.497384-6.4956814 0-3.5874657 2.908978-6.4956813 6.497384-6.4956813 3.588407 0 6.497385 2.9082156 6.497385 6.4956813 0 3.5874658-2.908978 6.4956814-6.497385 6.4956814zm0-3.0448506c1.906341 0 3.451736-1.5449896 3.451736-3.4508308 0-1.9058411-1.545395-3.4508307-3.451736-3.4508307s-3.451735 1.5449896-3.451735 3.4508307c0 1.9058412 1.545394 3.4508308 3.451735 3.4508308zm19.898241-4.0598009v6.2926913c0 .2242166-.181811.4059801-.406086.4059801h-2.436519c-.224276 0-.406087-.1817635-.406087-.4059801v-6.0897013h-.00714c.004733-.0670479.00714-.134738.00714-.20299 0-1.5695163-1.272678-2.8418606-2.842606-2.8418606s-2.842606 1.2723443-2.842606 2.8418606c0 .068252.002407.1359421.00714.20299h-.00714v6.0897013c0 .2242166-.181811.4059801-.406086.4059801h-2.233476c-.224276 0-.406087-.1817635-.406087-.4059801v-11.3674423c0-.2242167.181811-.4059801.406087-.4059801h2.233476c.224275 0 .406086.1817634.406086.4059801v.0356546c.888627-.53796 1.930967-.8476148 3.045649-.8476148 3.251994 0 5.888255 2.6355704 5.888255 5.8867112z" fill="#0e0000"/></svg>